<svg width="30" height="29" viewBox="0 0 30 29" fill="none" xmlns="http://www.w3.org/2000/svg">
<path d="M27.8813 17.3793C26.6521 15.8865 26.0936 14.5929 26.0936 12.395V11.6477C26.0936 8.78369 25.4598 6.93837 24.0818 5.09303C21.9579 2.22723 18.3824 0.5 14.882 0.5H14.7333C11.3066 0.5 7.84308 2.14792 5.68241 4.8974C4.22911 6.77974 3.52171 8.70438 3.52171 11.6477V12.395C3.52171 14.5929 2.99992 15.8865 1.73395 17.3793C0.802446 18.4791 0.504761 19.8926 0.504761 21.4225C0.504761 22.9541 0.98808 24.4046 1.95805 25.5838C3.22403 26.9973 5.01179 27.8996 6.83799 28.0565C9.48201 28.3701 12.1259 28.4883 14.8085 28.4883C17.4894 28.4883 20.1334 28.2909 22.7789 28.0565C24.6034 27.8996 26.3913 26.9973 27.6572 25.5838C28.6256 24.4046 29.1105 22.9541 29.1105 21.4225C29.1105 19.8926 28.8129 18.4791 27.8813 17.3793Z" fill="#99BAED"/>
</svg>
