<svg width="58" height="66" viewBox="0 0 58 66" fill="none" xmlns="http://www.w3.org/2000/svg">
<path d="M10.04 -0.000353966C5.73269 3.01569 4.59758 9.01233 7.6136 13.3204L23.124 35.4719L17.4833 43.5268C12.3051 40.5276 5.60445 41.9384 2.10833 46.932C-1.58284 52.2053 -0.301877 59.4707 4.97036 63.1635C10.2428 66.8545 17.5098 65.5746 21.2025 60.3012C23.7361 56.6826 23.9261 52.1247 22.0926 48.4286L29.0003 38.5628L35.9073 48.4277C34.0747 52.1238 34.2647 56.6815 36.7974 60.3003C40.4901 65.5734 47.7563 66.8535 53.0287 63.1626C58.3018 59.4698 59.5828 52.2036 55.8916 46.9312C52.3955 41.9382 45.6948 40.5277 40.5166 43.5261L34.8759 35.4712L50.3854 13.3205C53.4023 9.01244 52.2664 3.0158 47.959 -0.000235649L29.0002 27.0788L10.04 -0.000353966ZM17.7227 53.5909C17.7227 56.9275 15.0176 59.6326 11.681 59.6326C8.34435 59.6326 5.63926 56.9274 5.63926 53.5909C5.63926 50.2535 8.34434 47.5491 11.681 47.5491C15.0176 47.5491 17.7227 50.2535 17.7227 53.5909ZM52.3619 53.5909C52.3619 56.9275 49.6568 59.6326 46.3202 59.6326C42.9836 59.6326 40.2785 56.9275 40.2785 53.5909C40.2785 50.2534 42.9836 47.5491 46.3202 47.5491C49.6567 47.5491 52.3619 50.2534 52.3619 53.5909Z" fill="#008FDD"/>
</svg>
