<svg width="58" height="66" fill="none" xmlns="http://www.w3.org/2000/svg"><path d="M10.04 0C5.733 3.016 4.598 9.012 7.614 13.32l15.51 22.152-5.64 8.055c-5.179-3-11.88-1.589-15.376 3.405-3.69 5.273-2.41 12.539 2.862 16.231 5.273 3.692 12.54 2.412 16.233-2.862a11.65 11.65 0 0 0 .89-11.872L29 38.563l6.907 9.865a11.655 11.655 0 0 0 .89 11.872c3.693 5.273 10.96 6.553 16.232 2.863 5.273-3.693 6.554-10.96 2.863-16.232-3.497-4.993-10.197-6.403-15.375-3.405l-5.641-8.055 15.51-22.15C53.401 9.011 52.265 3.015 47.958 0L29 27.079 10.04-.001Zm7.683 53.59a6.042 6.042 0 1 1-12.084 0 6.042 6.042 0 0 1 12.084 0Zm34.639 0a6.042 6.042 0 1 1-12.084 0 6.042 6.042 0 0 1 12.084 0Z" fill="#008FDD"/></svg>