<svg aria-hidden="true" style="position: absolute; width: 0; height: 0; overflow: hidden;" version="1.1" xmlns="http://www.w3.org/2000/svg" xmlns:xlink="http://www.w3.org/1999/xlink">
<defs>
<symbol id="icon-cleanser" viewBox="0 0 32 32">
<path fill="#008fdd" style="fill: var(--color1, #008fdd)" d="M3.75 0v3.75h-0.938v1.875h7.5v-1.875h-0.938v-1.875h4.299l1.6 1.6 1.326-1.326-2.15-2.15h-10.701z"></path>
<path fill="#008fdd" style="fill: var(--color1, #008fdd)" d="M22.563 25.376c0 0.516 0.42 0.937 0.938 0.937s0.937-0.42 0.937-0.938c-0.008-0.287-0.398-1.104-0.937-2.012-0.54 0.91-0.93 1.727-0.938 2.013z"></path>
<path fill="#008fdd" style="fill: var(--color1, #008fdd)" d="M28.25 15.063v-1.875h-9.5v1.875h-1.517c-1.61 3.253-2.233 6.197-2.233 8.438 0 2.238 0.621 5.244 2.233 8.5h12.534c1.61-3.253 2.233-6.26 2.233-8.5 0-2.238-0.621-5.181-2.233-8.438h-1.517zM23.5 28.188c-1.551 0-2.813-1.262-2.813-2.813 0-1.198 1.427-3.394 2.041-4.283l0.772-1.117 0.772 1.117c0.613 0.889 2.041 3.084 2.041 4.283 0 1.551-1.262 2.813-2.812 2.813z"></path>
<path fill="#008fdd" style="fill: var(--color1, #008fdd)" d="M18.75 5.625h9.5v5.687h-9.5v-5.687z"></path>
<path fill="#008fdd" style="fill: var(--color1, #008fdd)" d="M5.625 21.626c0 0.516 0.42 0.937 0.938 0.937s0.938-0.42 0.938-0.938c-0.008-0.288-0.398-1.104-0.938-2.012-0.54 0.91-0.93 1.727-0.938 2.013z"></path>
<path fill="#008fdd" style="fill: var(--color1, #008fdd)" d="M0 28.188h13.125v3.813h-13.125v-3.813z"></path>
<path fill="#008fdd" style="fill: var(--color1, #008fdd)" d="M0 7.5h13.125v3.812h-13.125v-3.812z"></path>
<path fill="#008fdd" style="fill: var(--color1, #008fdd)" d="M13.125 13.188h-13.125v13.125h13.125v-13.125zM6.563 24.437c-1.551 0-2.813-1.262-2.813-2.812 0-1.198 1.427-3.394 2.041-4.283l0.772-1.117 0.772 1.117c0.613 0.889 2.041 3.084 2.041 4.283 0 1.551-1.262 2.812-2.812 2.812z"></path>
</symbol>
<symbol id="icon-elrazor" viewBox="0 0 32 32">
<path fill="#008fdd" style="fill: var(--color1, #008fdd)" d="M15.21 12.674v-1.511h1.511v1.511h-1.511z"></path>
<path fill="#008fdd" style="fill: var(--color1, #008fdd)" d="M15.432 20.467c-0.143 0.143-0.221 0.332-0.221 0.534l0 2.834c-0 0.202 0.079 0.392 0.221 0.534s0.332 0.221 0.534 0.221c0.202 0 0.391-0.079 0.534-0.221s0.221-0.332 0.221-0.534l0-2.834c0-0.202-0.079-0.392-0.221-0.534s-0.332-0.221-0.534-0.221c-0.202 0-0.392 0.079-0.534 0.221z"></path>
<path fill="#008fdd" style="fill: var(--color1, #008fdd)" d="M18.045 13.335c0 0.183-0.074 0.348-0.194 0.468s-0.285 0.194-0.468 0.194l-2.834 0c-0.175 0-0.344-0.070-0.468-0.194s-0.194-0.293-0.194-0.468l0-2.173-3.897 0-0 12.319c0 1.596 0.622 3.097 1.75 4.225 0.971 0.971 2.218 1.566 3.564 1.714v1.576c0 0.365 0.296 0.662 0.662 0.662 0.183 0 0.348-0.074 0.468-0.194s0.194-0.285 0.194-0.468v-1.576c1.346-0.147 2.593-0.743 3.564-1.714 1.129-1.129 1.75-2.629 1.75-4.225v-12.319h-3.897v2.173zM18.045 21.001l-0 2.834c-0 0.555-0.216 1.077-0.609 1.47s-0.915 0.609-1.47 0.609-1.077-0.216-1.47-0.609c-0.393-0.393-0.609-0.915-0.609-1.47v-2.834c0-0.555 0.216-1.077 0.609-1.47s0.915-0.609 1.47-0.609c0.555 0 1.077 0.216 1.47 0.609s0.609 0.915 0.609 1.47z"></path>
<path fill="#008fdd" style="fill: var(--color1, #008fdd)" d="M21.28 5.588c-0.365 0-0.662 0.296-0.662 0.662v0.755h-0.802v-0.755c0-0.365-0.296-0.662-0.661-0.662s-0.661 0.296-0.662 0.662l-0 0.756h-0.802v-0.755c0-0.365-0.296-0.662-0.661-0.662s-0.661 0.296-0.662 0.662l-0 0.756h-0.802v-0.756c0-0.365-0.296-0.661-0.661-0.661s-0.662 0.296-0.662 0.662l-0 0.756h-0.802l-0-0.756c0-0.365-0.296-0.662-0.661-0.661s-0.662 0.296-0.662 0.662v0.755l-0.803 0-0-0.756c0-0.365-0.296-0.662-0.661-0.661s-0.662 0.296-0.662 0.662v1.417c0 0 0 0 0 0v2.172l11.951-0-0-2.172c0 0 0-0 0-0l-0-1.417c0-0.365-0.296-0.662-0.661-0.661z"></path>
</symbol>
<symbol id="icon-googl" viewBox="0 0 32 32">
<path fill="#fff" style="fill: var(--color2, #fff)" d="M27.004 13.099v-3.93h-2.62v3.93h-3.93v2.62h3.93v3.93h2.62v-3.93h3.93v-2.62h-3.93zM16.917 17.553l-1.441-1.048c-0.524-0.393-1.048-0.917-1.048-1.834s0.655-1.703 1.31-2.096c1.703-1.31 3.406-2.751 3.406-5.633 0-2.751-1.703-4.323-2.62-5.109h2.227l1.572-1.834h-8.122c-5.764 0-8.646 3.668-8.646 7.597 0 3.013 2.358 6.288 6.55 6.288h1.048c-0.131 0.393-0.524 1.048-0.524 1.703 0 1.31 0.524 1.834 1.179 2.62-1.834 0.131-5.24 0.524-7.729 2.096-2.358 1.441-3.013 3.406-3.013 4.847 0 3.013 2.751 5.895 8.646 5.895 7.074 0 10.48-3.93 10.48-7.728-0-2.751-1.441-4.192-3.275-5.764zM6.961 5.633c0-2.882 1.703-4.192 3.537-4.192 3.406 0 5.24 4.585 5.24 7.205 0 3.406-2.751 4.061-3.799 4.061-3.275 0-4.978-4.061-4.978-7.074zM11.677 29.211c-4.323 0-7.074-1.965-7.074-4.847s2.62-3.799 3.406-4.192c1.703-0.524 3.93-0.655 4.323-0.655s0.655 0 0.917 0c3.144 2.227 4.454 3.144 4.454 5.24 0 2.489-2.489 4.454-6.026 4.454z"></path>
</symbol>
<symbol id="icon-Profile" viewBox="0 0 32 32">
<path fill="#99baed" style="fill: var(--color3, #99baed)" d="M15.761 20.233c-5.529 0-10.253 0.907-10.253 4.533 0 3.628 4.694 4.567 10.253 4.567 5.53 0 10.253-0.905 10.253-4.533s-4.692-4.567-10.253-4.567z"></path>
<path fill="#a4a4a4" style="fill: var(--color4, #a4a4a4)" opacity="0.4" d="M15.761 16.778c3.767 0 6.785-3.14 6.785-7.056s-3.018-7.056-6.785-7.056c-3.765 0-6.785 3.14-6.785 7.056s3.019 7.056 6.785 7.056z"></path>
</symbol>
<symbol id="icon-scissors" viewBox="0 0 32 32">
<path fill="#99baed" style="fill: var(--color3, #99baed)" d="M15.868 2.439c-1.869 0.163-3.289 1.814-3.126 3.683l0.841 9.611-3.18 1.482c-1.065-1.85-3.387-2.61-5.358-1.691-2.081 0.971-2.981 3.444-2.011 5.525s3.444 2.982 5.526 2.011c1.428-0.666 2.3-2.040 2.393-3.509l3.894-1.816 0.374 4.28c-1.226 0.815-1.98 2.257-1.843 3.827 0.2 2.288 2.217 3.979 4.504 3.78s3.98-2.217 3.78-4.504c-0.19-2.166-2.008-3.797-4.143-3.795l-0.306-3.495 8.743-4.077c1.701-0.793 2.419-2.848 1.626-4.548l-10.688 4.984-1.028-11.748zM8.683 20.367c-0.595 1.031-1.913 1.384-2.944 0.789s-1.384-1.914-0.789-2.944c0.595-1.031 1.913-1.384 2.944-0.789s1.384 1.913 0.789 2.944zM19.385 26.546c-0.595 1.031-1.913 1.384-2.944 0.789s-1.384-1.913-0.789-2.944c0.595-1.031 1.913-1.384 2.944-0.789s1.384 1.913 0.789 2.944z"></path>
</symbol>
<symbol id="icon-twitt" viewBox="0 0 32 32">
<path fill="#fff" style="fill: var(--color2, #fff)" d="M31.692 6.048c-1.179 0.517-2.434 0.86-3.744 1.026 1.347-0.804 2.375-2.068 2.858-3.591-1.256 0.749-2.642 1.278-4.12 1.573-1.192-1.27-2.892-2.056-4.746-2.056-3.597 0-6.493 2.92-6.493 6.499 0 0.515 0.044 1.010 0.15 1.482-5.402-0.263-10.181-2.852-13.392-6.796-0.561 0.973-0.889 2.086-0.889 3.284 0 2.25 1.159 4.245 2.886 5.4-1.044-0.020-2.068-0.323-2.936-0.8 0 0.020 0 0.046 0 0.071 0 3.157 2.252 5.78 5.205 6.384-0.529 0.145-1.105 0.214-1.703 0.214-0.416 0-0.836-0.024-1.23-0.111 0.842 2.573 3.231 4.465 6.071 4.526-2.211 1.729-5.017 2.771-8.056 2.771-0.533 0-1.044-0.024-1.555-0.089 2.878 1.856 6.289 2.916 9.967 2.916 11.956 0 18.492-9.904 18.492-18.488 0-0.287-0.010-0.565-0.024-0.84 1.29-0.915 2.373-2.058 3.256-3.373z"></path>
</symbol>
<symbol id="icon-Vbell" viewBox="0 0 32 32">
<path fill="#99baed" style="fill: var(--color3, #99baed)" d="M29.74 19.071c-1.311-1.592-1.907-2.972-1.907-5.317v-0.797c0-3.055-0.676-5.023-2.146-6.992-2.265-3.057-6.079-4.899-9.813-4.899h-0.159c-3.655 0-7.35 1.758-9.654 4.691-1.55 2.008-2.305 4.061-2.305 7.2v0.797c0 2.344-0.557 3.724-1.907 5.317-0.994 1.173-1.311 2.681-1.311 4.313 0 1.634 0.516 3.181 1.55 4.439 1.35 1.508 3.257 2.47 5.205 2.638 2.82 0.334 5.64 0.461 8.502 0.461 2.86 0 5.68-0.211 8.502-0.461 1.946-0.167 3.853-1.13 5.204-2.638 1.033-1.258 1.55-2.805 1.55-4.439 0-1.632-0.317-3.14-1.311-4.313z"></path>
</symbol>
<symbol id="icon-Vbody" viewBox="0 0 32 32">
<path fill="#99baed" style="fill: var(--color3, #99baed)" d="M16.214 9.206c-8.294 0-15.379 1.36-15.379 6.8 0 5.442 7.040 6.85 15.379 6.85 8.294 0 15.379-1.358 15.379-6.8s-7.038-6.85-15.379-6.85z"></path>
</symbol>
<symbol id="icon-Vhead" viewBox="0 0 32 32">
<path fill="#a4a4a4" style="fill: var(--color4, #a4a4a4)" opacity="0.4" d="M15.499 30.434c7.91 0 14.248-6.594 14.248-14.818s-6.338-14.818-14.248-14.818c-7.907 0-14.248 6.594-14.248 14.818s6.34 14.818 14.248 14.818z"></path>
</symbol>
<symbol id="icon-Vscis" viewBox="0 0 32 32">
<path fill="#008fdd" style="fill: var(--color1, #008fdd)" d="M6.807-0c-2.088 1.462-2.639 4.37-1.176 6.459l7.52 10.74-2.735 3.905c-2.511-1.454-5.759-0.77-7.455 1.651-1.79 2.557-1.169 6.079 1.388 7.87s6.080 1.169 7.87-1.388c1.228-1.754 1.321-3.964 0.432-5.756l3.349-4.783 3.349 4.783c-0.889 1.792-0.796 4.002 0.432 5.756 1.79 2.557 5.313 3.177 7.87 1.388s3.178-5.313 1.388-7.87c-1.695-2.421-4.944-3.105-7.455-1.651l-2.735-3.905 7.52-10.74c1.463-2.089 0.912-4.996-1.176-6.459l-9.192 13.129-9.193-13.129zM10.532 25.983c0 1.618-1.312 2.929-2.929 2.929s-2.929-1.312-2.929-2.929c0-1.618 1.312-2.929 2.929-2.929s2.929 1.311 2.929 2.929zM27.327 25.983c0 1.618-1.312 2.929-2.929 2.929s-2.929-1.312-2.929-2.929c0-1.618 1.312-2.929 2.929-2.929s2.929 1.311 2.929 2.929z"></path>
</symbol>
</defs>
</svg>
