<!-- Generated by IcoMoon.io -->
<svg version="1.1" xmlns="http://www.w3.org/2000/svg" width="32" height="32" viewBox="0 0 32 32">
<title>cleanser</title>
<path fill="#008fdd" d="M3.75 0v3.75h-0.938v1.875h7.5v-1.875h-0.938v-1.875h4.299l1.6 1.6 1.326-1.326-2.15-2.15h-10.701z"></path>
<path fill="#008fdd" d="M22.563 25.376c0 0.516 0.42 0.937 0.938 0.937s0.937-0.42 0.937-0.938c-0.008-0.287-0.398-1.104-0.937-2.012-0.54 0.91-0.93 1.727-0.938 2.013z"></path>
<path fill="#008fdd" d="M28.25 15.063v-1.875h-9.5v1.875h-1.517c-1.61 3.253-2.233 6.197-2.233 8.438 0 2.238 0.621 5.244 2.233 8.5h12.534c1.61-3.253 2.233-6.26 2.233-8.5 0-2.238-0.621-5.181-2.233-8.438h-1.517zM23.5 28.188c-1.551 0-2.813-1.262-2.813-2.813 0-1.198 1.427-3.394 2.041-4.283l0.772-1.117 0.772 1.117c0.613 0.889 2.041 3.084 2.041 4.283 0 1.551-1.262 2.813-2.812 2.813z"></path>
<path fill="#008fdd" d="M18.75 5.625h9.5v5.687h-9.5v-5.687z"></path>
<path fill="#008fdd" d="M5.625 21.626c0 0.516 0.42 0.937 0.938 0.937s0.938-0.42 0.938-0.938c-0.008-0.288-0.398-1.104-0.938-2.012-0.54 0.91-0.93 1.727-0.938 2.013z"></path>
<path fill="#008fdd" d="M0 28.188h13.125v3.813h-13.125v-3.813z"></path>
<path fill="#008fdd" d="M0 7.5h13.125v3.812h-13.125v-3.812z"></path>
<path fill="#008fdd" d="M13.125 13.188h-13.125v13.125h13.125v-13.125zM6.563 24.437c-1.551 0-2.813-1.262-2.813-2.812 0-1.198 1.427-3.394 2.041-4.283l0.772-1.117 0.772 1.117c0.613 0.889 2.041 3.084 2.041 4.283 0 1.551-1.262 2.812-2.812 2.812z"></path>
</svg>
