<!-- Generated by IcoMoon.io -->
<svg version="1.1" xmlns="http://www.w3.org/2000/svg" width="32" height="32" viewBox="0 0 32 32">
<title>elrazor</title>
<path fill="#008fdd" d="M15.21 12.674v-1.511h1.511v1.511h-1.511z"></path>
<path fill="#008fdd" d="M15.432 20.467c-0.143 0.143-0.221 0.332-0.221 0.534l0 2.834c-0 0.202 0.079 0.392 0.221 0.534s0.332 0.221 0.534 0.221c0.202 0 0.391-0.079 0.534-0.221s0.221-0.332 0.221-0.534l0-2.834c0-0.202-0.079-0.392-0.221-0.534s-0.332-0.221-0.534-0.221c-0.202 0-0.392 0.079-0.534 0.221z"></path>
<path fill="#008fdd" d="M18.045 13.335c0 0.183-0.074 0.348-0.194 0.468s-0.285 0.194-0.468 0.194l-2.834 0c-0.175 0-0.344-0.070-0.468-0.194s-0.194-0.293-0.194-0.468l0-2.173-3.897 0-0 12.319c0 1.596 0.622 3.097 1.75 4.225 0.971 0.971 2.218 1.566 3.564 1.714v1.576c0 0.365 0.296 0.662 0.662 0.662 0.183 0 0.348-0.074 0.468-0.194s0.194-0.285 0.194-0.468v-1.576c1.346-0.147 2.593-0.743 3.564-1.714 1.129-1.129 1.75-2.629 1.75-4.225v-12.319h-3.897v2.173zM18.045 21.001l-0 2.834c-0 0.555-0.216 1.077-0.609 1.47s-0.915 0.609-1.47 0.609-1.077-0.216-1.47-0.609c-0.393-0.393-0.609-0.915-0.609-1.47v-2.834c0-0.555 0.216-1.077 0.609-1.47s0.915-0.609 1.47-0.609c0.555 0 1.077 0.216 1.47 0.609s0.609 0.915 0.609 1.47z"></path>
<path fill="#008fdd" d="M21.28 5.588c-0.365 0-0.662 0.296-0.662 0.662v0.755h-0.802v-0.755c0-0.365-0.296-0.662-0.661-0.662s-0.661 0.296-0.662 0.662l-0 0.756h-0.802v-0.755c0-0.365-0.296-0.662-0.661-0.662s-0.661 0.296-0.662 0.662l-0 0.756h-0.802v-0.756c0-0.365-0.296-0.661-0.661-0.661s-0.662 0.296-0.662 0.662l-0 0.756h-0.802l-0-0.756c0-0.365-0.296-0.662-0.661-0.661s-0.662 0.296-0.662 0.662v0.755l-0.803 0-0-0.756c0-0.365-0.296-0.662-0.661-0.661s-0.662 0.296-0.662 0.662v1.417c0 0 0 0 0 0v2.172l11.951-0-0-2.172c0 0 0-0 0-0l-0-1.417c0-0.365-0.296-0.662-0.661-0.661z"></path>
</svg>
