<!-- Generated by IcoMoon.io -->
<svg version="1.1" xmlns="http://www.w3.org/2000/svg" width="32" height="32" viewBox="0 0 32 32">
<title>googl</title>
<path fill="#fff" d="M27.004 13.099v-3.93h-2.62v3.93h-3.93v2.62h3.93v3.93h2.62v-3.93h3.93v-2.62h-3.93zM16.917 17.553l-1.441-1.048c-0.524-0.393-1.048-0.917-1.048-1.834s0.655-1.703 1.31-2.096c1.703-1.31 3.406-2.751 3.406-5.633 0-2.751-1.703-4.323-2.62-5.109h2.227l1.572-1.834h-8.122c-5.764 0-8.646 3.668-8.646 7.597 0 3.013 2.358 6.288 6.55 6.288h1.048c-0.131 0.393-0.524 1.048-0.524 1.703 0 1.31 0.524 1.834 1.179 2.62-1.834 0.131-5.24 0.524-7.729 2.096-2.358 1.441-3.013 3.406-3.013 4.847 0 3.013 2.751 5.895 8.646 5.895 7.074 0 10.48-3.93 10.48-7.728-0-2.751-1.441-4.192-3.275-5.764zM6.961 5.633c0-2.882 1.703-4.192 3.537-4.192 3.406 0 5.24 4.585 5.24 7.205 0 3.406-2.751 4.061-3.799 4.061-3.275 0-4.978-4.061-4.978-7.074zM11.677 29.211c-4.323 0-7.074-1.965-7.074-4.847s2.62-3.799 3.406-4.192c1.703-0.524 3.93-0.655 4.323-0.655s0.655 0 0.917 0c3.144 2.227 4.454 3.144 4.454 5.24 0 2.489-2.489 4.454-6.026 4.454z"></path>
</svg>
