<!-- Generated by IcoMoon.io -->
<svg version="1.1" xmlns="http://www.w3.org/2000/svg" width="32" height="32" viewBox="0 0 32 32">
<title>scissors</title>
<path fill="#99baed" d="M15.868 2.439c-1.869 0.163-3.289 1.814-3.126 3.683l0.841 9.611-3.18 1.482c-1.065-1.85-3.387-2.61-5.358-1.691-2.081 0.971-2.981 3.444-2.011 5.525s3.444 2.982 5.526 2.011c1.428-0.666 2.3-2.040 2.393-3.509l3.894-1.816 0.374 4.28c-1.226 0.815-1.98 2.257-1.843 3.827 0.2 2.288 2.217 3.979 4.504 3.78s3.98-2.217 3.78-4.504c-0.19-2.166-2.008-3.797-4.143-3.795l-0.306-3.495 8.743-4.077c1.701-0.793 2.419-2.848 1.626-4.548l-10.688 4.984-1.028-11.748zM8.683 20.367c-0.595 1.031-1.913 1.384-2.944 0.789s-1.384-1.914-0.789-2.944c0.595-1.031 1.913-1.384 2.944-0.789s1.384 1.913 0.789 2.944zM19.385 26.546c-0.595 1.031-1.913 1.384-2.944 0.789s-1.384-1.913-0.789-2.944c0.595-1.031 1.913-1.384 2.944-0.789s1.384 1.913 0.789 2.944z"></path>
</svg>
