<!-- Generated by IcoMoon.io -->
<svg version="1.1" xmlns="http://www.w3.org/2000/svg" width="32" height="32" viewBox="0 0 32 32">
<title>twitt</title>
<path fill="#fff" d="M31.692 6.048c-1.179 0.517-2.434 0.86-3.744 1.026 1.347-0.804 2.375-2.068 2.858-3.591-1.256 0.749-2.642 1.278-4.12 1.573-1.192-1.27-2.892-2.056-4.746-2.056-3.597 0-6.493 2.92-6.493 6.499 0 0.515 0.044 1.010 0.15 1.482-5.402-0.263-10.181-2.852-13.392-6.796-0.561 0.973-0.889 2.086-0.889 3.284 0 2.25 1.159 4.245 2.886 5.4-1.044-0.020-2.068-0.323-2.936-0.8 0 0.020 0 0.046 0 0.071 0 3.157 2.252 5.78 5.205 6.384-0.529 0.145-1.105 0.214-1.703 0.214-0.416 0-0.836-0.024-1.23-0.111 0.842 2.573 3.231 4.465 6.071 4.526-2.211 1.729-5.017 2.771-8.056 2.771-0.533 0-1.044-0.024-1.555-0.089 2.878 1.856 6.289 2.916 9.967 2.916 11.956 0 18.492-9.904 18.492-18.488 0-0.287-0.010-0.565-0.024-0.84 1.29-0.915 2.373-2.058 3.256-3.373z"></path>
</svg>
