<!-- Generated by IcoMoon.io -->
<svg version="1.1" xmlns="http://www.w3.org/2000/svg" width="32" height="32" viewBox="0 0 32 32">
<title>Vbell</title>
<path fill="#99baed" d="M29.74 19.071c-1.311-1.592-1.907-2.972-1.907-5.317v-0.797c0-3.055-0.676-5.023-2.146-6.992-2.265-3.057-6.079-4.899-9.813-4.899h-0.159c-3.655 0-7.35 1.758-9.654 4.691-1.55 2.008-2.305 4.061-2.305 7.2v0.797c0 2.344-0.557 3.724-1.907 5.317-0.994 1.173-1.311 2.681-1.311 4.313 0 1.634 0.516 3.181 1.55 4.439 1.35 1.508 3.257 2.47 5.205 2.638 2.82 0.334 5.64 0.461 8.502 0.461 2.86 0 5.68-0.211 8.502-0.461 1.946-0.167 3.853-1.13 5.204-2.638 1.033-1.258 1.55-2.805 1.55-4.439 0-1.632-0.317-3.14-1.311-4.313z"></path>
</svg>
