<!-- Generated by IcoMoon.io -->
<svg version="1.1" xmlns="http://www.w3.org/2000/svg" width="32" height="32" viewBox="0 0 32 32">
<title>Vscis</title>
<path fill="#008fdd" d="M6.807-0c-2.088 1.462-2.639 4.37-1.176 6.459l7.52 10.74-2.735 3.905c-2.511-1.454-5.759-0.77-7.455 1.651-1.79 2.557-1.169 6.079 1.388 7.87s6.080 1.169 7.87-1.388c1.228-1.754 1.321-3.964 0.432-5.756l3.349-4.783 3.349 4.783c-0.889 1.792-0.796 4.002 0.432 5.756 1.79 2.557 5.313 3.177 7.87 1.388s3.178-5.313 1.388-7.87c-1.695-2.421-4.944-3.105-7.455-1.651l-2.735-3.905 7.52-10.74c1.463-2.089 0.912-4.996-1.176-6.459l-9.192 13.129-9.193-13.129zM10.532 25.983c0 1.618-1.312 2.929-2.929 2.929s-2.929-1.312-2.929-2.929c0-1.618 1.312-2.929 2.929-2.929s2.929 1.311 2.929 2.929zM27.327 25.983c0 1.618-1.312 2.929-2.929 2.929s-2.929-1.312-2.929-2.929c0-1.618 1.312-2.929 2.929-2.929s2.929 1.311 2.929 2.929z"></path>
</svg>
